<svg xmlns="http://www.w3.org/2000/svg" xmlns:xlink="http://www.w3.org/1999/xlink" width="500" zoomAndPan="magnify" viewBox="0 0 375 374.999991" height="500" preserveAspectRatio="xMidYMid meet" version="1.0"><defs><g/><clipPath id="d9af7e055a"><path d="M 78 39.863281 L 299.292969 39.863281 L 299.292969 261 L 78 261 Z M 78 39.863281 " clip-rule="nonzero"/></clipPath><clipPath id="0020b86b15"><rect x="0" width="349" y="0" height="58"/></clipPath></defs><g clip-path="url(#d9af7e055a)"><path fill="#ff751f" d="M 139.785156 193.734375 L 86.382812 193.734375 C 78.746094 193.734375 75.792969 183.796875 82.1875 179.628906 L 139.261719 142.421875 C 140.890625 141.363281 143.046875 142.53125 143.046875 144.472656 L 143.046875 190.476562 C 143.046875 192.277344 141.585938 193.734375 139.785156 193.734375 Z M 203.0625 194.316406 L 291.539062 194.320312 C 295.78125 194.320312 299.21875 190.882812 299.21875 186.640625 L 299.21875 53.585938 C 299.21875 49.53125 293.9375 47.957031 291.726562 51.359375 L 201.015625 190.53125 C 199.945312 192.160156 201.113281 194.316406 203.0625 194.316406 Z M 145.359375 252.691406 C 145.359375 260.324219 155.296875 263.277344 159.46875 256.882812 L 196.660156 199.816406 C 197.71875 198.1875 196.550781 196.035156 194.609375 196.035156 L 148.617188 196.035156 C 146.816406 196.035156 145.355469 197.496094 145.355469 199.296875 Z M 148.5625 138.066406 L 287.714844 47.355469 C 291.113281 45.144531 289.546875 39.863281 285.488281 39.863281 L 152.453125 39.882812 C 148.214844 39.882812 144.777344 43.320312 144.777344 47.558594 L 144.777344 136.015625 C 144.777344 137.957031 146.933594 139.125 148.5625 138.066406 Z M 152.886719 145.121094 L 193.964844 186.214844 C 195.0625 187.316406 196.894531 187.121094 197.742188 185.820312 L 277.214844 63.894531 C 278.074219 62.574219 276.515625 61.011719 275.195312 61.875 L 153.285156 141.34375 C 151.980469 142.191406 151.789062 144.027344 152.886719 145.121094 Z M 155.550781 191.429688 L 188.222656 191.429688 C 189.675781 191.429688 190.402344 189.671875 189.375 188.644531 L 150.460938 149.714844 C 149.433594 148.6875 147.675781 149.414062 147.675781 150.867188 L 147.675781 183.554688 C 147.675781 185.644531 148.507812 187.644531 149.980469 189.121094 L 149.984375 189.125 C 151.460938 190.597656 153.460938 191.429688 155.550781 191.429688 Z M 155.550781 191.429688 " fill-opacity="1" fill-rule="nonzero"/></g><g transform="matrix(1, 0, 0, 1, 14, 276)"><g clip-path="url(#0020b86b15)"><g fill="#ff751f" fill-opacity="1"><g transform="translate(1.222594, 45.790532)"><g><path d="M 20.578125 0 L 13.828125 -11.640625 L 9.125 -11.640625 L 9.125 0 L 2.671875 0 L 2.671875 -33.96875 L 15.234375 -33.96875 C 17.765625 -33.96875 19.910156 -33.46875 21.671875 -32.46875 C 23.429688 -31.46875 24.765625 -30.125 25.671875 -28.4375 C 26.578125 -26.757812 27.03125 -24.882812 27.03125 -22.8125 C 27.03125 -20.539062 26.476562 -18.488281 25.375 -16.65625 C 24.28125 -14.832031 22.679688 -13.488281 20.578125 -12.625 L 27.859375 0 Z M 9.125 -27.765625 L 9.125 -17.8125 L 15.09375 -17.8125 C 16.707031 -17.8125 17.984375 -18.28125 18.921875 -19.21875 C 19.859375 -20.15625 20.328125 -21.351562 20.328125 -22.8125 C 20.328125 -24.269531 19.859375 -25.457031 18.921875 -26.375 C 17.984375 -27.300781 16.707031 -27.765625 15.09375 -27.765625 Z M 9.125 -27.765625 "/></g></g></g><g fill="#ff751f" fill-opacity="1"><g transform="translate(32.230417, 45.790532)"><g><path d="M 9.125 -6.15625 L 25.234375 -6.15625 L 25.234375 0 L 2.671875 0 L 2.671875 -33.96875 L 24.9375 -33.96875 L 24.9375 -27.765625 L 9.125 -27.765625 L 9.125 -20.046875 L 23.4375 -20.046875 L 23.4375 -13.875 L 9.125 -13.875 Z M 9.125 -6.15625 "/></g></g></g><g fill="#ff751f" fill-opacity="1"><g transform="translate(61.831026, 45.790532)"><g><path d="M 22.671875 -33.96875 L 29.125 -33.96875 L 29.125 0 L 22.765625 0 L 9.125 -22.03125 L 9.125 0 L 2.671875 0 L 2.671875 -33.96875 L 8.984375 -33.96875 L 22.671875 -11.9375 Z M 22.671875 -33.96875 "/></g></g></g><g fill="#ff751f" fill-opacity="1"><g transform="translate(96.041512, 45.790532)"><g><path d="M 13.59375 -33.96875 C 17.34375 -33.96875 20.539062 -33.238281 23.1875 -31.78125 C 25.84375 -30.332031 27.875 -28.335938 29.28125 -25.796875 C 30.695312 -23.253906 31.40625 -20.316406 31.40625 -16.984375 C 31.40625 -13.679688 30.695312 -10.753906 29.28125 -8.203125 C 27.875 -5.648438 25.84375 -3.644531 23.1875 -2.1875 C 20.539062 -0.726562 17.34375 0 13.59375 0 C 13.59375 0 13.226562 0 12.5 0 C 11.769531 0 10.863281 0 9.78125 0 C 8.695312 0 7.601562 0 6.5 0 C 5.40625 0 4.492188 0 3.765625 0 C 3.035156 0 2.671875 0 2.671875 0 L 2.671875 -33.96875 C 2.671875 -33.96875 3.035156 -33.96875 3.765625 -33.96875 C 4.492188 -33.96875 5.40625 -33.96875 6.5 -33.96875 C 7.601562 -33.96875 8.695312 -33.96875 9.78125 -33.96875 C 10.863281 -33.96875 11.769531 -33.96875 12.5 -33.96875 C 13.226562 -33.96875 13.59375 -33.96875 13.59375 -33.96875 Z M 13.4375 -6.15625 C 15.832031 -6.15625 17.882812 -6.609375 19.59375 -7.515625 C 21.3125 -8.421875 22.628906 -9.679688 23.546875 -11.296875 C 24.472656 -12.921875 24.9375 -14.816406 24.9375 -16.984375 C 24.9375 -19.148438 24.472656 -21.035156 23.546875 -22.640625 C 22.628906 -24.242188 21.3125 -25.5 19.59375 -26.40625 C 17.882812 -27.3125 15.832031 -27.765625 13.4375 -27.765625 L 9.125 -27.765625 L 9.125 -6.15625 Z M 13.4375 -6.15625 "/></g></g></g><g fill="#ff751f" fill-opacity="1"><g transform="translate(131.319545, 45.790532)"><g><path d="M 9.125 -6.15625 L 25.234375 -6.15625 L 25.234375 0 L 2.671875 0 L 2.671875 -33.96875 L 24.9375 -33.96875 L 24.9375 -27.765625 L 9.125 -27.765625 L 9.125 -20.046875 L 23.4375 -20.046875 L 23.4375 -13.875 L 9.125 -13.875 Z M 9.125 -6.15625 "/></g></g></g><g fill="#ff751f" fill-opacity="1"><g transform="translate(160.920154, 45.790532)"><g><path d="M 31.59375 0 L 23.734375 0 L 16.015625 -12.515625 L 8.296875 0 L 0.484375 0 L 11.59375 -17.71875 L 1.40625 -33.96875 L 9.265625 -33.96875 L 16.015625 -22.8125 L 22.8125 -33.96875 L 30.671875 -33.96875 L 20.484375 -17.671875 Z M 31.59375 0 "/></g></g></g><g fill="#ff751f" fill-opacity="1"><g transform="translate(195.421787, 45.790532)"><g><path d="M 15.234375 -33.96875 C 17.765625 -33.96875 19.910156 -33.46875 21.671875 -32.46875 C 23.429688 -31.46875 24.765625 -30.125 25.671875 -28.4375 C 26.578125 -26.757812 27.03125 -24.882812 27.03125 -22.8125 C 27.03125 -20.738281 26.578125 -18.859375 25.671875 -17.171875 C 24.765625 -15.492188 23.429688 -14.148438 21.671875 -13.140625 C 19.910156 -12.140625 17.765625 -11.640625 15.234375 -11.640625 L 9.125 -11.640625 L 9.125 0 L 2.671875 0 L 2.671875 -33.96875 Z M 15.09375 -17.8125 C 16.707031 -17.8125 17.992188 -18.28125 18.953125 -19.21875 C 19.910156 -20.15625 20.390625 -21.351562 20.390625 -22.8125 C 20.390625 -24.269531 19.910156 -25.457031 18.953125 -26.375 C 17.992188 -27.300781 16.707031 -27.765625 15.09375 -27.765625 L 9.125 -27.765625 L 9.125 -17.8125 Z M 15.09375 -17.8125 "/></g></g></g><g fill="#ff751f" fill-opacity="1"><g transform="translate(226.33257, 45.790532)"><g><path d="M 20.578125 0 L 13.828125 -11.640625 L 9.125 -11.640625 L 9.125 0 L 2.671875 0 L 2.671875 -33.96875 L 15.234375 -33.96875 C 17.765625 -33.96875 19.910156 -33.46875 21.671875 -32.46875 C 23.429688 -31.46875 24.765625 -30.125 25.671875 -28.4375 C 26.578125 -26.757812 27.03125 -24.882812 27.03125 -22.8125 C 27.03125 -20.539062 26.476562 -18.488281 25.375 -16.65625 C 24.28125 -14.832031 22.679688 -13.488281 20.578125 -12.625 L 27.859375 0 Z M 9.125 -27.765625 L 9.125 -17.8125 L 15.09375 -17.8125 C 16.707031 -17.8125 17.984375 -18.28125 18.921875 -19.21875 C 19.859375 -20.15625 20.328125 -21.351562 20.328125 -22.8125 C 20.328125 -24.269531 19.859375 -25.457031 18.921875 -26.375 C 17.984375 -27.300781 16.707031 -27.765625 15.09375 -27.765625 Z M 9.125 -27.765625 "/></g></g></g><g fill="#ff751f" fill-opacity="1"><g transform="translate(257.340393, 45.790532)"><g><path d="M 9.125 -6.15625 L 25.234375 -6.15625 L 25.234375 0 L 2.671875 0 L 2.671875 -33.96875 L 24.9375 -33.96875 L 24.9375 -27.765625 L 9.125 -27.765625 L 9.125 -20.046875 L 23.4375 -20.046875 L 23.4375 -13.875 L 9.125 -13.875 Z M 9.125 -6.15625 "/></g></g></g><g fill="#ff751f" fill-opacity="1"><g transform="translate(286.941002, 45.790532)"><g><path d="M 15.328125 -20.4375 C 17.566406 -19.75 19.566406 -18.992188 21.328125 -18.171875 C 23.085938 -17.347656 24.46875 -16.28125 25.46875 -14.96875 C 26.476562 -13.65625 26.984375 -11.953125 26.984375 -9.859375 C 26.984375 -7.972656 26.535156 -6.238281 25.640625 -4.65625 C 24.753906 -3.070312 23.394531 -1.800781 21.5625 -0.84375 C 19.738281 0.101562 17.421875 0.578125 14.609375 0.578125 C 12.410156 0.578125 10.332031 0.21875 8.375 -0.5 C 6.414062 -1.226562 4.769531 -2.234375 3.4375 -3.515625 C 2.113281 -4.796875 1.289062 -6.242188 0.96875 -7.859375 L 6.890625 -10.140625 C 7.210938 -8.847656 8.035156 -7.828125 9.359375 -7.078125 C 10.691406 -6.335938 12.25 -5.96875 14.03125 -5.96875 C 16 -5.96875 17.5 -6.316406 18.53125 -7.015625 C 19.570312 -7.710938 20.09375 -8.578125 20.09375 -9.609375 C 20.09375 -10.285156 19.878906 -10.859375 19.453125 -11.328125 C 19.035156 -11.796875 18.300781 -12.25 17.25 -12.6875 C 16.195312 -13.125 14.75 -13.617188 12.90625 -14.171875 C 8.988281 -15.335938 6.171875 -16.71875 4.453125 -18.3125 C 2.742188 -19.914062 1.890625 -21.960938 1.890625 -24.453125 C 1.890625 -25.585938 2.109375 -26.726562 2.546875 -27.875 C 2.984375 -29.03125 3.671875 -30.082031 4.609375 -31.03125 C 5.546875 -31.988281 6.78125 -32.765625 8.3125 -33.359375 C 9.851562 -33.960938 11.707031 -34.265625 13.875 -34.265625 C 15.625 -34.265625 17.304688 -33.960938 18.921875 -33.359375 C 20.546875 -32.765625 21.9375 -31.898438 23.09375 -30.765625 C 24.257812 -29.628906 25.003906 -28.253906 25.328125 -26.640625 L 19.609375 -24.515625 C 19.472656 -25.222656 19.101562 -25.816406 18.5 -26.296875 C 17.90625 -26.785156 17.203125 -27.164062 16.390625 -27.4375 C 15.585938 -27.71875 14.765625 -27.859375 13.921875 -27.859375 C 12.566406 -27.890625 11.363281 -27.65625 10.3125 -27.15625 C 9.257812 -26.65625 8.734375 -25.835938 8.734375 -24.703125 C 8.734375 -24.179688 8.910156 -23.691406 9.265625 -23.234375 C 9.617188 -22.785156 10.273438 -22.34375 11.234375 -21.90625 C 12.191406 -21.46875 13.554688 -20.976562 15.328125 -20.4375 Z M 15.328125 -20.4375 "/></g></g></g><g fill="#ff751f" fill-opacity="1"><g transform="translate(317.560636, 45.790532)"><g><path d="M 15.328125 -20.4375 C 17.566406 -19.75 19.566406 -18.992188 21.328125 -18.171875 C 23.085938 -17.347656 24.46875 -16.28125 25.46875 -14.96875 C 26.476562 -13.65625 26.984375 -11.953125 26.984375 -9.859375 C 26.984375 -7.972656 26.535156 -6.238281 25.640625 -4.65625 C 24.753906 -3.070312 23.394531 -1.800781 21.5625 -0.84375 C 19.738281 0.101562 17.421875 0.578125 14.609375 0.578125 C 12.410156 0.578125 10.332031 0.21875 8.375 -0.5 C 6.414062 -1.226562 4.769531 -2.234375 3.4375 -3.515625 C 2.113281 -4.796875 1.289062 -6.242188 0.96875 -7.859375 L 6.890625 -10.140625 C 7.210938 -8.847656 8.035156 -7.828125 9.359375 -7.078125 C 10.691406 -6.335938 12.25 -5.96875 14.03125 -5.96875 C 16 -5.96875 17.5 -6.316406 18.53125 -7.015625 C 19.570312 -7.710938 20.09375 -8.578125 20.09375 -9.609375 C 20.09375 -10.285156 19.878906 -10.859375 19.453125 -11.328125 C 19.035156 -11.796875 18.300781 -12.25 17.25 -12.6875 C 16.195312 -13.125 14.75 -13.617188 12.90625 -14.171875 C 8.988281 -15.335938 6.171875 -16.71875 4.453125 -18.3125 C 2.742188 -19.914062 1.890625 -21.960938 1.890625 -24.453125 C 1.890625 -25.585938 2.109375 -26.726562 2.546875 -27.875 C 2.984375 -29.03125 3.671875 -30.082031 4.609375 -31.03125 C 5.546875 -31.988281 6.78125 -32.765625 8.3125 -33.359375 C 9.851562 -33.960938 11.707031 -34.265625 13.875 -34.265625 C 15.625 -34.265625 17.304688 -33.960938 18.921875 -33.359375 C 20.546875 -32.765625 21.9375 -31.898438 23.09375 -30.765625 C 24.257812 -29.628906 25.003906 -28.253906 25.328125 -26.640625 L 19.609375 -24.515625 C 19.472656 -25.222656 19.101562 -25.816406 18.5 -26.296875 C 17.90625 -26.785156 17.203125 -27.164062 16.390625 -27.4375 C 15.585938 -27.71875 14.765625 -27.859375 13.921875 -27.859375 C 12.566406 -27.890625 11.363281 -27.65625 10.3125 -27.15625 C 9.257812 -26.65625 8.734375 -25.835938 8.734375 -24.703125 C 8.734375 -24.179688 8.910156 -23.691406 9.265625 -23.234375 C 9.617188 -22.785156 10.273438 -22.34375 11.234375 -21.90625 C 12.191406 -21.46875 13.554688 -20.976562 15.328125 -20.4375 Z M 15.328125 -20.4375 "/></g></g></g></g></g></svg>